<?xml version="1.0" encoding="UTF-8" standalone="no"?>
<svg
   version="1.1"
   viewBox="0 0 2448.9539 692.26251"
   height="2452.9"
   width="8677.4"
   id="svg1107"
   sodipodi:docname="aircraft-carrier-gray.svg"
   inkscape:version="1.2.2 (1:1.2.2+202212051552+b0a8486541)"
   xmlns:inkscape="http://www.inkscape.org/namespaces/inkscape"
   xmlns:sodipodi="http://sodipodi.sourceforge.net/DTD/sodipodi-0.dtd"
   xmlns="http://www.w3.org/2000/svg"
   xmlns:svg="http://www.w3.org/2000/svg">
  <defs
     id="defs1111" />
  <sodipodi:namedview
     id="namedview1109"
     pagecolor="#ffffff"
     bordercolor="#000000"
     borderopacity="0.25"
     inkscape:showpageshadow="2"
     inkscape:pageopacity="0.0"
     inkscape:pagecheckerboard="0"
     inkscape:deskcolor="#d1d1d1"
     showgrid="false"
     inkscape:zoom="0.13978841"
     inkscape:cx="4338.7002"
     inkscape:cy="1226.8542"
     inkscape:window-width="1920"
     inkscape:window-height="1016"
     inkscape:window-x="0"
     inkscape:window-y="0"
     inkscape:window-maximized="1"
     inkscape:current-layer="layer1" />
  <metadata
     id="metadata4119" />
  <g
     transform="translate(1195.7508,353.02414)"
     id="layer1">
    <path
       id="path3214"
       d="m 354.11667,-352.86797 0,24.68007 -26.574,0 0,7.59089 26.574,0 0,118.15711 -103.4699,-0.44979 1.8996,10.43728 34.1723,2.84586 64.552,14.24252 22.7814,0 3.7992,85.429729 -24.6812,0 3.7993,47.46016 -36.6223,0 3.806,-54.07157 c 1.5585,-3.15992 2.4366,-6.717769 2.4364,-10.477239 0,-13.09899 -10.628,-23.72677 -23.7278,-23.72677 -13.0998,0 -23.7346,10.62752 -23.7346,23.72677 0,3.80868 0.8997,7.407279 2.4969,10.597889 -0.6871,15.90357 -9.5147,49.21911 -10.7867,53.95092 l -0.2552,0 0.047,0.76491 c 0,0.0132 -0.047,0.18151 -0.047,0.18151 l 0.054,-0.0738 4.5107,70.31408 -34.9374,0 0,11.39005 3.8998,0 4.6451,10.44363 -52.6713,2.77231 -9.9813,-34.09659 -5.6986,0 c 0,0 2.6627,9.76788 -6.6049,37.02314 l -4.7858,0 0,6.64475 7.598,0 0,0.94615 -10.4441,0 0,10.4439 10.4441,0 0,19.927892 -258.201297,3.79888 0,1.89945 -1101.143673,0 c -14.1937,1.446469 -15.5132,9.327089 -9.4913,20.880919 l 22.7814,18.98782 0,13.28976 -11.3907,17.08176 0,30.3784 15.19,0 11.3907,49.35961 c 0,0 25.3366,-1.36287 36.0719,0 18.0895,2.29659 40.8724,12.15152 58.8534,15.18259 12.6384,2.13016 27.6273,2.06269 42.7169,2.20133 l 0,4.44341 31.23219,0 -4.6382,7.07417 c -1.2548,1.91267 -1.6447,4.13835 -1.2686,6.21533 l -18.68029,0 0,30.3784 33.22589,0 0,-18.03506 c 3.5667,1.14617 7.5798,-0.15875 9.7394,-3.4499 l 11.0753,-16.87381 c 12.5676,6.24708 25.66224,15.88982 35.18595,24.11598 1.23251,1.06468 2.58506,2.35717 4.00719,3.79889 l -19.1905,0 0,-14.23617 -8.54464,0 0,41.76183 8.54464,0 0,-18.98147 26.99693,0 c 10.09078,11.67686 20.46552,25.62622 20.46573,25.62622 l 1985.84971,-5.69172 55.0611,-11.39005 3.7925,-102.5181 c 32.2472,-38.10689 59.5723,-70.44717 96.8246,-83.53029 l -1.8997,-41.768179 -121.4988,0 -5.6989,1.89918 -527.78693,-3.792012 15.1831,-55.05821 -7.5917,-7.59116 -100.6239,0 3.7992,-22.7803603 9.4913,-13.2894902 -1.8929,-9.4908705 11.3907,-28.478429 7.5916,-1.89971 -3.7993,-15.1892 -9.491,0 0,-9.4906 -25.6277,0 0,-38.915719 -18.989,0 0,-9.4906 40.8176,0 0,-5.69833 -37.0183,0 0,-27.52567 -17.0896,0 0,29.42511 5.6986,0 0,3.79889 1.8997,0 0,9.4906 -4.7457,0 0,19.934509 -41.7704,-3.79889 3.7991,-85.429729 34.1723,-1.89944 5.692,-20.88092 -2.6581,-0.0132 c 2.8821,-4.3516 4.5577,-9.56945 4.5577,-15.17597 0,-15.19476 -12.3312,-27.5254 -27.5272,-27.5254 -15.1958,0 -27.527,12.33064 -27.527,27.5254 0,5.52106 1.6281,10.6635 4.4301,14.97436 l -57.5914,-0.24818 0,-118.19071 10.4443,0 0,-7.59089 -10.4443,0 0,-24.68007 -6.6451,0 z m -41.247,267.363319 6.249,43.03051 -47.8249,0 30.8026,-40.82891 c 0.2528,0.008 0.5105,0.0132 0.7653,0.0132 3.5765,0 6.9655,-0.79587 10.008,-2.21483 z m -127.7215,120.86194 9.7664,18.02156 -18.3045,0.96679 0,1.89944 -2.3223,0 10.8604,-20.88779 z"
       fill-rule="evenodd"
       stroke="#000000"
       stroke-width="0.265"
       style="stroke:#132e3e;stroke-opacity:1;fill:#84898c;fill-opacity:1" />
  </g>
</svg>
