<?xml version="1.0" encoding="UTF-8" standalone="no"?>
<svg
   version="1.0"
   width="880pt"
   height="260pt"
   viewBox="0 0 880 260"
   preserveAspectRatio="xMidYMid meet"
   id="svg64"
   sodipodi:docname="cruiser-gray.svg"
   inkscape:version="1.2.2 (1:1.2.2+202212051552+b0a8486541)"
   xmlns:inkscape="http://www.inkscape.org/namespaces/inkscape"
   xmlns:sodipodi="http://sodipodi.sourceforge.net/DTD/sodipodi-0.dtd"
   xmlns="http://www.w3.org/2000/svg"
   xmlns:svg="http://www.w3.org/2000/svg"
   xmlns:rdf="http://www.w3.org/1999/02/22-rdf-syntax-ns#"
   xmlns:cc="http://creativecommons.org/ns#"
   xmlns:dc="http://purl.org/dc/elements/1.1/">
  <metadata
     id="metadata70">
    <rdf:RDF>
      <cc:Work
         rdf:about="">
        <dc:format>image/svg+xml</dc:format>
        <dc:type
           rdf:resource="http://purl.org/dc/dcmitype/StillImage" />
      </cc:Work>
    </rdf:RDF>
  </metadata>
  <defs
     id="defs68" />
  <sodipodi:namedview
     pagecolor="#ffffff"
     bordercolor="#666666"
     borderopacity="1"
     objecttolerance="10"
     gridtolerance="10"
     guidetolerance="10"
     inkscape:pageopacity="0"
     inkscape:pageshadow="2"
     inkscape:window-width="1920"
     inkscape:window-height="1016"
     id="namedview66"
     showgrid="false"
     inkscape:zoom="0.44859462"
     inkscape:cx="837.05863"
     inkscape:cy="250.78321"
     inkscape:window-x="0"
     inkscape:window-y="0"
     inkscape:window-maximized="1"
     inkscape:current-layer="g911"
     inkscape:showpageshadow="2"
     inkscape:pagecheckerboard="0"
     inkscape:deskcolor="#d1d1d1"
     inkscape:document-units="pt" />
  <g
     id="g911"
     transform="translate(0,-298)">
    <path
       d="m 390.12183,306 c 0,1.1 0.7,2 1.5,2 0.8,0 1.5,0.4 1.5,1 0,0.5 -0.7,1 -1.5,1 -2.3,0 -2.2,17.5 0.1,18.4 0.8,0.3 1.2,1 0.9,1.6 -0.4,0.6 -1.1,0.7 -1.7,0.4 -0.7,-0.5 -0.9,0 -0.6,1.4 0.4,1.2 0.2,2.2 -0.4,2.2 -1.4,0 -0.6,10.2 0.9,12.1 0.7,0.9 1.7,6.7 2.3,13.4 1.2,14.8 2.4,16.7 6.6,10.1 1.6,-2.5 3.6,-4.6 4.5,-4.6 0.9,0 2.2,-1.1 2.9,-2.5 1.5,-2.8 1.8,-2.9 4,-1.5 1.3,0.8 1.2,1.3 -0.4,4.1 -1.5,2.6 -1.6,3.3 -0.5,4 0.9,0.5 1.9,-0.1 3.2,-2.1 1.6,-2.5 2.2,-2.8 3.8,-1.9 1.5,0.8 1.7,1.4 0.9,2.9 -0.6,1 -1.5,2.2 -2,2.5 -1.5,0.9 -1.2,2.5 0.4,2.5 0.7,0 2.1,-1.2 3.1,-2.6 1.5,-2.4 1.8,-2.5 3.3,-1.1 1.4,1.4 1.4,1.8 -0.1,4.1 -2,3.1 -2.1,3.6 -0.4,3.6 0.8,0 2,-1.1 2.7,-2.5 1.6,-2.9 2.3,-3.1 4,-1 1,1.3 1,1.9 -0.4,3.3 -2,2.3 -2.1,4.1 -0.1,4.8 1,0.4 1.3,1.3 1,2.5 -0.5,1.6 -0.1,1.9 3.2,2 2.1,0.1 5.4,0.3 7.3,0.3 l 3.5,0.2 0.3,7.2 0.3,7.2 h 3.9 c 3.3,0 4,-0.3 4,-2 0,-1 -1.2,-3.1 -2.6,-4.5 -2.1,-2.1 -2.5,-3.2 -2,-5.8 1.3,-6.6 9.3,-9 14.1,-4.2 3.2,3.1 3.2,6.9 0,10.1 -1.4,1.4 -2.5,3.4 -2.5,4.4 0,1.7 0.7,2 4.5,2 h 4.5 v 6.3 c 0,3.6 0.5,6.8 1.2,7.5 0.9,0.9 0.9,1.2 0,1.2 -0.9,0 -1.2,3.3 -1.2,12 v 12 l 41.7,0.1 c 23,0 44.7,0.2 48.3,0.3 l 6.5,0.3 0.3,7.2 0.3,7.1 h 32.9 33 v -7.9 -8 l -3.3,-0.4 -3.2,-0.4 3.2,-0.1 c 3.1,-0.2 3.3,-0.4 3.3,-4.2 0,-3 -0.4,-4 -1.6,-4 -0.8,0 -1.3,-0.4 -1,-0.8 0.3,-0.5 -1.5,-2.5 -3.9,-4.5 -4.2,-3.6 -5,-3.8 -19.1,-5.9 -11.2,-1.7 -14.9,-1.9 -15.2,-1 -0.5,1.7 -3.1,1.5 -3.8,-0.3 -0.4,-0.8 -1.7,-1.5 -3,-1.5 -1.3,0 -2.4,-0.4 -2.4,-0.9 0,-0.4 9.8,-0.6 21.7,-0.4 20.9,0.3 22,0.4 26.4,2.8 l 4.6,2.5 2.7,-3.1 c 2.9,-3.3 5.1,-3.4 5.1,-0.3 0,1 0.4,2.5 0.8,3.1 0.6,0.9 0.2,1.3 -1.2,1.3 -1.8,0 -2.1,0.6 -2.1,4 0,3.1 0.4,4 1.7,4 1.6,0 1.6,0.1 0,1.3 -2.2,1.5 -1.3,7.4 1.2,8 1.4,0.4 1.4,0.5 -0.2,0.6 -1.5,0.1 -1.7,1.2 -1.7,7.9 v 7.9 l 33.7,0.6 c 18.6,0.4 71.5,0.7 117.5,0.7 55.2,0 83.8,0.3 83.8,1 0,0.5 -2.8,1.1 -6.3,1.1 -3.4,0.1 -5,0.4 -3.4,0.6 2.6,0.4 2.7,0.7 2.7,6.4 0,5.2 0.2,5.9 2,5.9 2,0 2,0.7 2.1,37.2 0.1,20.5 0.2,38.4 0.3,39.8 l 0.1,2.5 -407,0.3 -406.999998,0.4 -2,-5.3 c -5.8,-15.2 -37.1,-64 -46.5,-72.4 -4.4,-3.9 -4.9,-8.5 -0.9,-8.5 2.8,0 2.5,-3.7 -0.4,-4.3 l -2.2,-0.4 2.2,-0.2 c 2,-0.1 2.3,-0.7 2.3,-4 0,-3.3 -0.4,-4 -2.3,-4.4 -5.4,-1 164.099998,-1.1 198.399998,-0.1 l 20.6,0.7 0.7,-4.9 c 1.5,-10.2 0.5,-9.4 12.2,-9.4 h 10.4 v -3.5 c 0,-1.9 -0.5,-3.5 -1,-3.5 -0.6,0 -1,-1.4 -1,-3 0,-2.7 0.3,-3 3,-3 2.7,0 3,0.3 3,3 0,2 -0.5,3 -1.5,3 -1,0 -1.4,0.7 -1.1,2.2 0.3,1.3 0.5,2.6 0.5,3 0.1,0.5 3,0.8 6.6,0.8 6.2,0 6.5,-0.1 6.5,-2.4 0,-1.3 0.3,-3.7 0.6,-5.4 l 0.6,-3 -7.8,-1.7 c -13.4,-2.8 -13.8,-3.3 -2.7,-3.4 l 10.3,-0.1 v -3 c 0,-2.7 -0.3,-3 -2.9,-3 -2.8,0 -3,-0.2 -3.7,-5.8 -1,-8.7 -1.8,-10.2 -5.4,-10.2 -1.6,0 -3,-0.5 -3,-1 0,-0.6 1.3,-0.8 2.9,-0.5 3.1,0.5 4.4,-0.5 5.6,-4.5 0.3,-1.4 1.4,-4.5 2.3,-6.8 l 1.5,-4.4 9.4,0.4 c 8,0.3 9.2,0.1 8.7,-1.2 -1.7,-3.9 -1.5,-5.8 0.9,-8.5 1.9,-2.2 3.2,-2.8 6,-2.7 3.5,0.1 3.7,-0.1 3.7,-2.8 0,-2.3 0.4,-3 2,-3 1.5,0 2,-0.7 2,-2.9 0,-3.4 -0.1,-3.4 -10.8,-5.1 -5.4,-0.9 -7.2,-1.6 -6.8,-2.5 0.3,-0.8 -0.4,-1.5 -1.7,-1.8 -1.2,-0.2 0.3,-0.4 3.3,-0.5 4.1,0 4.9,0.2 3,0.8 -1.9,0.6 -1.1,0.8 3.3,0.9 l 5.7,0.1 -0.5,-4.3 c -0.4,-3.2 -0.3,-3.6 0.4,-1.7 0.9,2.4 1.2,2.4 1.5,-0.1 0.1,-1.2 13.1,-1.8 14.2,-0.7 0.3,0.4 -0.3,1.3 -1.5,2 -2.9,1.8 -2.8,5.8 0.1,5.8 h 2.3 l -2.4,1.3 c -1.3,0.6 -2.3,1.5 -2.2,1.9 0,0.5 0.1,1.5 0.1,2.4 0,0.8 0.4,1.3 0.9,0.9 0.5,-0.3 1.2,-0.1 1.6,0.5 0.3,0.5 -0.1,1 -1,1 -1.5,0 -1.6,1.2 -1,11.7 0.4,6.5 0.8,11.9 0.9,12 0.1,0.1 5.8,0.3 12.6,0.4 6.9,0.2 15.3,0.5 18.8,0.7 l 6.4,0.4 -0.4,6.9 -0.3,6.9 h 18.2 18.3 l 0.1,-8.8 c 0,-4.8 1.1,-16.1 2.3,-25.2 1.9,-13.7 2.1,-16.7 1,-17.9 -0.7,-0.8 -4.3,-1.7 -8.6,-2 -4,-0.4 -7.9,-1 -8.6,-1.4 -2.8,-1.9 -0.7,-2.7 6.7,-2.7 h 8 l 0.4,-3.3 c 0.4,-3.1 0.4,-3.1 0.5,0.6 0.3,5.3 2.2,3.7 2.2,-1.8 0,-4.2 -0.1,-4.4 -3.3,-4.8 -3.1,-0.4 -3.1,-0.4 0.5,-0.5 l 3.8,-0.2 0.2,-11.3 0.2,-11.2 0.3,9.2 c 0.5,12.3 2.3,12.1 2.3,-0.2 0,-8.8 -0.1,-9.5 -2,-9.5 -1.1,0 -2,-0.5 -2,-1 0,-0.6 0.9,-1 2,-1 1.3,0 2,-0.7 2,-2 0,-1.1 0.4,-2 1,-2 0.5,0 1,0.9 1,2 z m -4,26 c 0,0.5 0.4,1 1,1 0.5,0 1,-0.5 1,-1 0,-0.6 -0.5,-1 -1,-1 -0.6,0 -1,0.4 -1,1 z m -92,37.4 c 0,0.3 0.4,0.8 1,1.1 0.5,0.3 1,0.1 1,-0.4 0,-0.6 -0.5,-1.1 -1,-1.1 -0.6,0 -1,0.2 -1,0.4 z m 109.7,5.3 c -2.4,3.4 -2.5,3.8 -1,4.4 1.3,0.4 2.6,-0.4 4.5,-3 1.4,-2 2.4,-3.9 2.2,-4.3 -1.1,-1.7 -3.2,-0.6 -5.7,2.9 z m 7.3,3.2 c -1.3,2 -1.7,3.2 -1,3.6 0.6,0.4 1.3,0.5 1.4,0.4 1.7,-2.3 3.6,-5.5 3.6,-6.1 0,-1.7 -2,-0.6 -4,2.1 z m 6.4,2.8 c -1.7,2.2 -1.7,3.3 -0.3,3.3 1.2,0 3.8,-2.9 3.9,-4.3 0,-1.4 -2.3,-0.7 -3.6,1 z m -19,1.9 c 0.3,0.9 0.6,2 0.6,2.5 0,0.5 2.2,0.9 5,0.9 3.9,0 5,-0.4 5,-1.6 0,-1 -0.6,-1.3 -1.9,-0.9 -1,0.3 -2.4,-0.1 -3.1,-1 -1.7,-2.1 -6.4,-2 -5.6,0.1 z m -111,1.2 c -2.1,-0.2 -3.3,0 -3.1,0.6 0.2,0.6 2.7,1.2 5.5,1.4 4.7,0.3 5.2,0.1 5.2,-1.8 0,-1.8 -0.3,-1.9 -2.1,-0.9 -1.2,0.6 -3.7,0.9 -5.5,0.7 z m 136,2 c 2.2,0.5 3,-0.3 2.1,-1.8 -0.5,-0.8 -1.1,-0.7 -2.2,0.2 -1.5,1.2 -1.4,1.3 0.1,1.6 z m 203.7,38.8 c 3.1,3.3 3.4,3.4 3.7,1.4 0.2,-1.2 1.1,-2.4 2,-2.8 1.3,-0.5 1,-0.8 -1.3,-1.3 -1.7,-0.4 -4.1,-0.7 -5.4,-0.8 -2.4,-0.1 -2.4,0 1,3.5 z"
       id="path28"
       inkscape:connector-curvature="0"
       style="fill:#84898c;stroke:none;stroke-width:0.1;fill-opacity:1" />
  </g>
</svg>
