<?xml version="1.0" encoding="UTF-8" standalone="no"?>
<!-- Created with Inkscape (http://www.inkscape.org/) -->

<svg
   width="49.999996"
   height="50"
   viewBox="0 0 13.229165 13.229167"
   version="1.1"
   id="svg5"
   xml:space="preserve"
   xmlns="http://www.w3.org/2000/svg"
   xmlns:svg="http://www.w3.org/2000/svg"><defs
     id="defs2"><linearGradient
       id="linearGradient11790"><stop
         style="stop-color:#000000;stop-opacity:1;"
         offset="0"
         id="stop11788" /></linearGradient></defs><g
     id="layer1"
     transform="translate(-0.09890059,-0.13247473)"><rect
       style="fill:#8b0010;fill-opacity:1;stroke:none;stroke-width:0.79375;stroke-dasharray:none;stroke-opacity:1;paint-order:stroke markers fill"
       id="rect12113"
       width="13.229166"
       height="13.229166"
       x="0.098900586"
       y="0.13247472" /><g
       id="g11990"
       transform="matrix(0.01807306,0,0,0.01807306,0.61200016,0.1909356)"><path
         d="m 329.68854,144.94541 c 0,0 -9.36917,-18.56155 -37.65344,-6.36396"
         id="path2983"
         style="display:none;fill:none;stroke:#ff0000;stroke-width:2;stroke-linecap:butt;stroke-linejoin:miter;stroke-opacity:1" /><path
         d="m 326.89053,144.94541 c 0,0 -9.36916,-18.56155 -37.65343,-6.36396"
         id="path2983-8"
         style="display:none;fill:none;stroke:#ff0000;stroke-width:2;stroke-linecap:butt;stroke-linejoin:miter;stroke-opacity:1" /><path
         d="M 94.632461,36.002506 300.17059,193.5309 342.01667,44.61734 401.0935,195.99228 564.78554,54.462865 476.1703,237.83576 616.47776,232.913 525.40098,347.36723 647.24694,426.13143 502.01641,428.59281 630.0162,582.42913 446.63188,497.51148 426.93961,662.42402 337.0936,529.50944 211.55535,700.57543 223.86302,486.43526 52.786376,520.8946 159.86312,380.59587 72.478652,237.83576 194.32461,261.21889 Z"
         id="path3508"
         style="fill:#ff0000;stroke:none" /><path
         d="m 160.19852,118.79827 154.32422,118.27707 31.41931,-111.80879 44.35666,113.65687 122.90492,-106.26455 -66.53499,137.6819 105.34707,-3.69616 -68.38319,85.93568 91.48562,59.13854 -109.04346,1.84808 96.1061,115.50495 -137.69048,-63.75873 -14.78555,123.8213 -67.45909,-99.79627 -94.25791,128.4415 9.24097,-160.78289 -128.4495,25.87311 80.39645,-105.34052 -65.6109,-107.18859 91.48562,17.55675 z"
         id="path3512"
         style="fill:#ff8000;stroke:none" /><path
         d="m 226.23659,204.20966 99.10228,75.9539 20.17651,-71.80017 28.48448,72.98695 78.92577,-68.23983 -42.72673,88.41509 67.65065,-2.37356 -43.91358,55.18526 58.74925,37.97695 -70.02436,1.18678 61.71639,74.17373 -88.4206,-40.9439 -9.49483,79.51424 -43.32015,-64.0861 -60.52953,82.48119 5.93426,-103.24984 -82.48632,16.61492 51.62813,-67.64645 -42.1333,-68.83322 58.74925,11.27441 z"
         id="path3514"
         style="fill:#ffff00;stroke:none" /><path
         d="m -57.960642,305.2594 a 30.912344,30.912344 0 1 1 -61.824688,0 30.912344,30.912344 0 1 1 61.824688,0 z"
         transform="translate(435.34884,54.096601)"
         id="path3516"
         style="fill:#000000;fill-opacity:1;stroke:none" /></g></g></svg>
