<?xml version="1.0" encoding="UTF-8" standalone="no"?>
<!-- Generator: Adobe Illustrator 24.0.0, SVG Export Plug-In . SVG Version: 6.00 Build 0)  -->

<svg
   version="1.1"
   id="svg1961"
   inkscape:output_extension="org.inkscape.output.svg.inkscape"
   inkscape:version="1.2.2 (1:1.2.2+202212051552+b0a8486541)"
   sodipodi:docname="sub-red.svg"
   sodipodi:version="0.32"
   x="0px"
   y="0px"
   viewBox="0 0 835 210"
   style="enable-background:new 0 0 835 210;"
   xml:space="preserve"
   xmlns:inkscape="http://www.inkscape.org/namespaces/inkscape"
   xmlns:sodipodi="http://sodipodi.sourceforge.net/DTD/sodipodi-0.dtd"
   xmlns="http://www.w3.org/2000/svg"
   xmlns:svg="http://www.w3.org/2000/svg">
<style
   type="text/css"
   id="style9616">
	.st0{fill-rule:evenodd;clip-rule:evenodd;}
</style>
<sodipodi:namedview
   bordercolor="#666666"
   borderopacity="1.0"
   gridtolerance="10.0"
   guidetolerance="10.0"
   id="base"
   inkscape:current-layer="svg1961"
   inkscape:cx="309.28768"
   inkscape:cy="106.67739"
   inkscape:pageopacity="0.0"
   inkscape:pageshadow="2"
   inkscape:window-height="1016"
   inkscape:window-width="1920"
   inkscape:window-x="0"
   inkscape:window-y="0"
   inkscape:zoom="0.65149701"
   objecttolerance="10.0"
   pagecolor="#ffffff"
   showgrid="false"
   inkscape:showpageshadow="2"
   inkscape:pagecheckerboard="0"
   inkscape:deskcolor="#d1d1d1"
   inkscape:window-maximized="1">
	</sodipodi:namedview>
<defs
   id="defs9620">
	
		<inkscape:perspective
   id="perspective44"
   inkscape:persp3d-origin="417.5 : 70 : 1"
   inkscape:vp_x="0 : 105 : 1"
   inkscape:vp_y="0 : 1000 : 0"
   inkscape:vp_z="835 : 105 : 1"
   sodipodi:type="inkscape:persp3d">
		</inkscape:perspective>
</defs>
<path
   class="st0"
   d="M804.2,141.3c17.2-5,28.8-8.6,28.8-9.5c0-0.9-11.6-4.6-28.7-9.8c0-0.8-0.1-1.7-0.1-2.5  c-0.1-3.9-0.1-19.7,0-21.3c0.1-1.7,0.6-4.2,0.5-4.2c-0.1,0-2.2,2.1-2.6,5c-0.4,3-2.1,15.6-2.4,19.1c-0.1,1-0.2,1.7-0.4,2.4  c-5.5-1.7-11.5-3.4-17.8-5.3l-0.2-55.1c0-3-0.7-5.4-1.6-5.4l-35.3,0.2c-0.6,0-13.5,24.7-22.4,42.6c-1-0.3-2-0.6-2.9-0.9  C670.3,81.7,565.5,68,549.6,67.9c-16.7-0.1-117.1,0.2-213.4,0.5c-2-6.3-19.1-61-20.8-63.2c-2.2-2.8-1.8-2.5-5.4-3.6  s-89.8-0.3-93.3,0.1c-3.1,0.4-4.1,3.1-4.4,5.5c-0.2,2.3,0,58,0,61.6c-38.6,0.1-64.5,0.2-64.5,0.2C63.8,69,1,96.2,1,131.2  s62.8,64.4,146.9,64.4c0,0,373-1.9,401.7-1.1C564,195,669.5,180.8,719,165.8c0.4-0.1,0.8-0.2,1.2-0.4c9.1,17.1,24.1,43.5,24.7,43.5  l35.3-0.2c0.9,0,1.6-2.4,1.6-5.5l-0.2-55.6c6.3-1.8,12.2-3.5,17.7-5.1c0.1,0.6,0.3,1.4,0.3,2.3c0.3,3.5,2,16.1,2.4,19.1  c0.4,3,2.5,5.1,2.6,5c0.1,0-0.5-2.5-0.5-4.2c-0.1-1.6,0-17.3,0-21.3C804.1,142.8,804.1,142,804.2,141.3z"
   id="path9622"
   style="fill:#8b0010;fill-opacity:1" />
</svg>
